<svg width="1em" height="1em" viewBox="0 0 10 10" fill="none" xmlns="http://www.w3.org/2000/svg">
<g id="github-mark 1">
<path id="Vector" fill-rule="evenodd" clip-rule="evenodd" d="M5.00414 0.357178C2.23698 0.357178 0 2.48515 0 5.11773C0 7.2221 1.43331 9.0034 3.42169 9.63386C3.67029 9.68125 3.76135 9.53143 3.76135 9.40539C3.76135 9.29503 3.75315 8.91673 3.75315 8.52258C2.36112 8.80637 2.07125 7.95509 2.07125 7.95509C1.84754 7.40336 1.51607 7.26156 1.51607 7.26156C1.06046 6.96993 1.54926 6.96993 1.54926 6.96993C2.05465 7.00147 2.31984 7.45859 2.31984 7.45859C2.76716 8.18365 3.48796 7.97878 3.77794 7.85265C3.81932 7.54526 3.95197 7.33246 4.09281 7.21426C2.98257 7.1039 1.81445 6.69407 1.81445 4.86547C1.81445 4.34528 2.01317 3.91969 2.32804 3.58869C2.27836 3.47049 2.10433 2.98174 2.37782 2.32758C2.37782 2.32758 2.80035 2.20145 3.75305 2.81624C4.16094 2.71203 4.58159 2.65902 5.00414 2.65857C5.42666 2.65857 5.85738 2.71381 6.25512 2.81624C7.20793 2.20145 7.63045 2.32758 7.63045 2.32758C7.90394 2.98174 7.72981 3.47049 7.68013 3.58869C8.0033 3.91969 8.19382 4.34528 8.19382 4.86547C8.19382 6.69407 7.0257 7.09597 5.90716 7.21426C6.08949 7.36399 6.24682 7.64769 6.24682 8.09698C6.24682 8.73537 6.23863 9.24773 6.23863 9.4053C6.23863 9.53143 6.32979 9.68125 6.57829 9.63396C8.56667 9.0033 9.99998 7.2221 9.99998 5.11773C10.0082 2.48515 7.763 0.357178 5.00414 0.357178Z" fill="#24292F"/>
</g>
</svg>
