<svg width="1em" height="1em" viewBox="0 0 10 10" fill="none" xmlns="http://www.w3.org/2000/svg">
<g id="ORCIDiD_iconvector 1" >
<path id="Vector" d="M10 5C10 7.76172 7.76172 10 5 10C2.23828 10 0 7.76172 0 5C0 2.23828 2.23828 0 5 0C7.76172 0 10 2.23828 10 5Z" fill="#A6CE39"/>
<g id="Group">
<path id="Vector_2" d="M3.37109 7.27344H2.76953V3.08984H3.37109V4.98047V7.27344Z" fill="white"/>
<path id="Vector_3" d="M4.25391 3.08984H5.87891C7.42578 3.08984 8.10547 4.19531 8.10547 5.18359C8.10547 6.25781 7.26562 7.27734 5.88672 7.27734H4.25391V3.08984ZM4.85547 6.73437H5.8125C7.17578 6.73437 7.48828 5.69922 7.48828 5.18359C7.48828 4.34375 6.95312 3.63281 5.78125 3.63281H4.85547V6.73437Z" fill="white"/>
<path id="Vector_4" d="M3.46484 2.21875C3.46484 2.43359 3.28906 2.61328 3.07031 2.61328C2.85156 2.61328 2.67578 2.43359 2.67578 2.21875C2.67578 2 2.85156 1.82422 3.07031 1.82422C3.28906 1.82422 3.46484 2.00391 3.46484 2.21875Z" fill="white"/>
</g>
</g>
<defs>
<clipPath id="clip0_1_84">
<rect width="10" height="10" fill="white"/>
</clipPath>
</defs>
</svg>
